<svg width="88" height="88" viewBox="0 0 88 88" fill="none" xmlns="http://www.w3.org/2000/svg">
<g filter="url(#filter0_d_1_140)">
<circle cx="44" cy="42" r="35" fill="#0F72E7"/>
<circle cx="44" cy="42" r="37.5" stroke="#F8F8F8" stroke-width="5"/>
</g>
<rect width="46" height="51.4622" transform="translate(21 16)" fill="#0F72E7"/>
<g clip-path="url(#clip0_1_140)">
<path d="M46.1705 16H43.4749V22.4646H46.1705V16Z" fill="white"/>
<path d="M54.0883 43.8555H34.0054V46.687H54.0883V43.8555Z" fill="#E4E4E4"/>
<path d="M48.0175 47.2264C48.0175 48.4593 49.0207 49.4625 50.2536 49.4625C51.4866 49.4625 52.4898 48.4593 52.4898 47.2264C52.4898 45.9935 51.4866 44.9903 50.2536 44.9903C49.016 44.9903 48.0175 45.9935 48.0175 47.2264Z" fill="#C6C6C6"/>
<path d="M35.7868 47.2166C35.7868 48.4495 36.79 49.4527 38.0229 49.4527C39.2558 49.4527 40.2591 48.4495 40.2591 47.2166C40.2591 45.9837 39.2558 44.9805 38.0229 44.9805C36.79 44.9852 35.7868 45.9837 35.7868 47.2166Z" fill="#C6C6C6"/>
<path d="M38.7917 40.8602C39.7153 40.1852 40.3106 39.8711 41.206 39.8711H45.3173H49.4286C50.3286 39.8711 50.9193 40.1852 51.8428 40.8602C52.7195 41.4978 55.2603 43.312 55.2603 43.312H45.3126H35.3649C35.3743 43.312 37.9151 41.4978 38.7917 40.8602Z" fill="white"/>
<path d="M50.5255 41.3293C49.8927 40.9028 49.4848 40.7012 48.866 40.7012H46.4283H45.3548H41.7685C41.1544 40.7012 40.7466 40.9028 40.109 41.3293C39.509 41.7325 38.4917 42.5013 38.4917 42.5013H44.6281H45.3173H52.1428C52.1428 42.5013 51.1256 41.7325 50.5255 41.3293Z" fill="white"/>
<path d="M50.2536 45.9326C49.5364 45.9326 48.9551 46.5139 48.9551 47.2312C48.9551 47.9484 49.5364 48.525 50.2536 48.525C50.9709 48.525 51.5522 47.9437 51.5522 47.2312C51.5475 46.5092 50.9709 45.9326 50.2536 45.9326Z" fill="#E4E4E4"/>
<path d="M38.0229 45.9229C37.3057 45.9229 36.7244 46.5041 36.7244 47.2167C36.7244 47.934 37.3057 48.5153 38.0229 48.5153C38.7402 48.5153 39.3215 47.934 39.3215 47.2167C39.3215 46.5041 38.7402 45.9229 38.0229 45.9229Z" fill="#E4E4E4"/>
<path d="M55.265 47.2165H53.0617C53.057 46.3821 52.6913 45.632 52.11 45.1211H55.2603V47.2165H55.265Z" fill="white"/>
<path d="M33.6163 43.3115H40.8357H47.4456H55.265V45.121H52.1147C51.6178 44.6804 50.9709 44.4179 50.2536 44.4179C49.5411 44.4179 48.8895 44.6851 48.3925 45.121C47.8112 45.632 47.4456 46.3821 47.4409 47.2165H40.831C40.831 46.3821 40.47 45.632 39.8934 45.121C39.3965 44.6757 38.7402 44.4085 38.0229 44.4085C37.3057 44.4085 36.6494 44.6804 36.1525 45.121H32.735V44.2585C32.735 44.2585 32.735 43.3115 33.6163 43.3115Z" fill="white"/>
<path d="M36.1571 45.1211C35.5805 45.6367 35.2149 46.3821 35.2149 47.2165H32.735V45.1211H36.1571Z" fill="white"/>
<path d="M51.6038 27.6255C51.6038 28.3709 50.999 28.9756 50.2536 28.9756H39.3918C38.6464 28.9756 38.0417 28.3709 38.0417 27.6255C38.0417 26.8801 38.6464 26.2754 39.3918 26.2754H50.2583C51.0037 26.2754 51.6038 26.8801 51.6038 27.6255Z" fill="white"/>
<path d="M40.9997 30.3543C41.3091 30.6637 41.3091 31.17 40.9997 31.4794L36.4665 36.0126C36.1571 36.322 35.6509 36.322 35.3415 36.0126C35.0321 35.7032 35.0321 35.1969 35.3415 34.8875L39.8746 30.3543C40.1887 30.0449 40.6903 30.0449 40.9997 30.3543Z" fill="white"/>
<path d="M48.6457 30.3543C48.9551 30.0449 49.4614 30.0449 49.7708 30.3543L54.304 34.8875C54.6134 35.1969 54.6134 35.7032 54.304 36.0126C53.9946 36.322 53.4883 36.322 53.1789 36.0126L48.6457 31.4794C48.3363 31.1653 48.3363 30.6637 48.6457 30.3543Z" fill="white"/>
<path d="M44.7969 30.7059C45.2376 30.7059 45.5939 31.0622 45.5939 31.5028V37.9159C45.5939 38.3565 45.2376 38.7128 44.7969 38.7128C44.3563 38.7128 44 38.3565 44 37.9159V31.5028C44 31.0622 44.3563 30.7059 44.7969 30.7059Z" fill="white"/>
<path d="M41.9467 33.6171C42.1389 33.6171 42.2889 33.7718 42.2889 33.964V36.7439C42.2889 36.9361 42.1342 37.0908 41.942 37.0908C41.7498 37.0908 41.5951 36.9361 41.5951 36.7439V33.964C41.5998 33.7718 41.7545 33.6171 41.9467 33.6171Z" fill="#C6C6C6"/>
<path d="M47.6706 33.6171C47.8628 33.6171 48.0128 33.7718 48.0128 33.964V36.7439C48.0128 36.9361 47.8581 37.0908 47.6659 37.0908C47.4737 37.0908 47.319 36.9361 47.319 36.7439V33.964C47.3284 33.7718 47.4831 33.6171 47.6706 33.6171Z" fill="#C6C6C6"/>
<path d="M40.0715 23.5297V26.2768H44.7641V18.7809C42.167 18.8137 40.0715 20.9233 40.0715 23.5297Z" fill="#C6C6C6"/>
<path d="M49.5786 23.5288C49.5786 20.9035 47.4503 18.7752 44.825 18.7752C44.8063 18.7752 44.7829 18.7799 44.7641 18.7799V26.2759H49.5786V23.5288Z" fill="white"/>
<path d="M42.5092 23.2291C43.0115 23.2291 43.4187 22.8219 43.4187 22.3196C43.4187 21.8173 43.0115 21.4102 42.5092 21.4102C42.007 21.4102 41.5998 21.8173 41.5998 22.3196C41.5998 22.8219 42.007 23.2291 42.5092 23.2291Z" fill="white"/>
</g>
<path d="M22.74 62.4622C22.476 62.4622 22.272 62.3942 22.128 62.2582C21.992 62.1142 21.924 61.9102 21.924 61.6462V54.8182C21.924 54.5542 21.992 54.3542 22.128 54.2182C22.272 54.0742 22.476 54.0022 22.74 54.0022H25.62C26.212 54.0022 26.716 54.0902 27.132 54.2662C27.548 54.4422 27.864 54.6942 28.08 55.0222C28.304 55.3502 28.416 55.7422 28.416 56.1982C28.416 56.7102 28.268 57.1422 27.972 57.4942C27.676 57.8462 27.272 58.0822 26.76 58.2022V58.0222C27.352 58.1102 27.812 58.3342 28.14 58.6942C28.468 59.0542 28.632 59.5222 28.632 60.0982C28.632 60.8502 28.376 61.4342 27.864 61.8502C27.36 62.2582 26.656 62.4622 25.752 62.4622H22.74ZM23.4 61.2982H25.56C26.104 61.2982 26.504 61.1942 26.76 60.9862C27.016 60.7702 27.144 60.4502 27.144 60.0262C27.144 59.5942 27.016 59.2742 26.76 59.0662C26.504 58.8582 26.104 58.7542 25.56 58.7542H23.4V61.2982ZM23.4 57.5902H25.356C25.884 57.5902 26.276 57.4902 26.532 57.2902C26.796 57.0822 26.928 56.7782 26.928 56.3782C26.928 55.9782 26.796 55.6782 26.532 55.4782C26.276 55.2702 25.884 55.1662 25.356 55.1662H23.4V57.5902ZM32.7177 62.5822C32.1097 62.5822 31.5817 62.4582 31.1337 62.2102C30.6857 61.9622 30.3377 61.6102 30.0897 61.1542C29.8417 60.6902 29.7177 60.1462 29.7177 59.5222C29.7177 59.0502 29.7857 58.6302 29.9217 58.2622C30.0657 57.8862 30.2697 57.5662 30.5337 57.3022C30.7977 57.0302 31.1137 56.8262 31.4817 56.6902C31.8497 56.5462 32.2617 56.4742 32.7177 56.4742C33.3257 56.4742 33.8537 56.5982 34.3017 56.8462C34.7497 57.0942 35.0977 57.4462 35.3457 57.9022C35.5937 58.3582 35.7177 58.8982 35.7177 59.5222C35.7177 59.9942 35.6457 60.4182 35.5017 60.7942C35.3657 61.1702 35.1657 61.4942 34.9017 61.7662C34.6377 62.0302 34.3217 62.2342 33.9537 62.3782C33.5857 62.5142 33.1737 62.5822 32.7177 62.5822ZM32.7177 61.4422C33.0137 61.4422 33.2737 61.3702 33.4977 61.2262C33.7217 61.0822 33.8937 60.8702 34.0137 60.5902C34.1417 60.3022 34.2057 59.9462 34.2057 59.5222C34.2057 58.8822 34.0697 58.4062 33.7977 58.0942C33.5257 57.7742 33.1657 57.6142 32.7177 57.6142C32.4217 57.6142 32.1617 57.6862 31.9377 57.8302C31.7137 57.9662 31.5377 58.1782 31.4097 58.4662C31.2897 58.7462 31.2297 59.0982 31.2297 59.5222C31.2297 60.1542 31.3657 60.6342 31.6377 60.9622C31.9097 61.2822 32.2697 61.4422 32.7177 61.4422ZM39.6318 62.5822C39.0238 62.5822 38.4958 62.4582 38.0478 62.2102C37.5998 61.9622 37.2518 61.6102 37.0038 61.1542C36.7558 60.6902 36.6318 60.1462 36.6318 59.5222C36.6318 59.0502 36.6998 58.6302 36.8358 58.2622C36.9798 57.8862 37.1838 57.5662 37.4478 57.3022C37.7118 57.0302 38.0278 56.8262 38.3958 56.6902C38.7638 56.5462 39.1758 56.4742 39.6318 56.4742C40.2398 56.4742 40.7678 56.5982 41.2158 56.8462C41.6638 57.0942 42.0118 57.4462 42.2598 57.9022C42.5078 58.3582 42.6318 58.8982 42.6318 59.5222C42.6318 59.9942 42.5598 60.4182 42.4158 60.7942C42.2798 61.1702 42.0798 61.4942 41.8158 61.7662C41.5518 62.0302 41.2358 62.2342 40.8678 62.3782C40.4998 62.5142 40.0878 62.5822 39.6318 62.5822ZM39.6318 61.4422C39.9278 61.4422 40.1878 61.3702 40.4118 61.2262C40.6358 61.0822 40.8078 60.8702 40.9278 60.5902C41.0558 60.3022 41.1198 59.9462 41.1198 59.5222C41.1198 58.8822 40.9838 58.4062 40.7118 58.0942C40.4398 57.7742 40.0798 57.6142 39.6318 57.6142C39.3358 57.6142 39.0758 57.6862 38.8518 57.8302C38.6278 57.9662 38.4518 58.1782 38.3238 58.4662C38.2038 58.7462 38.1438 59.0982 38.1438 59.5222C38.1438 60.1542 38.2798 60.6342 38.5518 60.9622C38.8238 61.2822 39.1838 61.4422 39.6318 61.4422ZM44.6138 62.5582C44.3738 62.5582 44.1898 62.4942 44.0618 62.3662C43.9338 62.2302 43.8698 62.0382 43.8698 61.7902V54.6622C43.8698 54.4142 43.9338 54.2262 44.0618 54.0982C44.1898 53.9702 44.3738 53.9062 44.6138 53.9062C44.8538 53.9062 45.0378 53.9702 45.1658 54.0982C45.3018 54.2262 45.3698 54.4142 45.3698 54.6622V59.0902H45.3938L47.3738 57.0022C47.5338 56.8422 47.6738 56.7182 47.7938 56.6302C47.9138 56.5422 48.0778 56.4982 48.2858 56.4982C48.4938 56.4982 48.6498 56.5542 48.7538 56.6662C48.8658 56.7702 48.9218 56.8982 48.9218 57.0502C48.9218 57.2022 48.8498 57.3542 48.7058 57.5062L46.6178 59.7142V59.0902L48.9098 61.5622C49.0538 61.7142 49.1178 61.8702 49.1018 62.0302C49.0938 62.1822 49.0298 62.3102 48.9098 62.4142C48.7898 62.5102 48.6378 62.5582 48.4538 62.5582C48.2298 62.5582 48.0498 62.5142 47.9138 62.4262C47.7858 62.3382 47.6418 62.2062 47.4818 62.0302L45.3938 59.8462H45.3698V61.7902C45.3698 62.3022 45.1178 62.5582 44.6138 62.5582ZM51.0474 62.5462C50.8074 62.5462 50.6234 62.4742 50.4954 62.3302C50.3674 62.1862 50.3034 61.9862 50.3034 61.7302V57.3262C50.3034 57.0622 50.3674 56.8622 50.4954 56.7262C50.6234 56.5822 50.8074 56.5102 51.0474 56.5102C51.2874 56.5102 51.4714 56.5822 51.5994 56.7262C51.7354 56.8622 51.8034 57.0622 51.8034 57.3262V61.7302C51.8034 61.9862 51.7394 62.1862 51.6114 62.3302C51.4834 62.4742 51.2954 62.5462 51.0474 62.5462ZM51.0474 55.3942C50.7674 55.3942 50.5474 55.3262 50.3874 55.1902C50.2354 55.0462 50.1594 54.8502 50.1594 54.6022C50.1594 54.3462 50.2354 54.1502 50.3874 54.0142C50.5474 53.8782 50.7674 53.8102 51.0474 53.8102C51.3354 53.8102 51.5554 53.8782 51.7074 54.0142C51.8594 54.1502 51.9354 54.3462 51.9354 54.6022C51.9354 54.8502 51.8594 55.0462 51.7074 55.1902C51.5554 55.3262 51.3354 55.3942 51.0474 55.3942ZM54.106 62.5582C53.866 62.5582 53.682 62.4942 53.554 62.3662C53.426 62.2302 53.362 62.0382 53.362 61.7902V57.2542C53.362 57.0062 53.426 56.8182 53.554 56.6902C53.682 56.5622 53.862 56.4982 54.094 56.4982C54.326 56.4982 54.506 56.5622 54.634 56.6902C54.762 56.8182 54.826 57.0062 54.826 57.2542V58.0702L54.694 57.7702C54.87 57.3462 55.142 57.0262 55.51 56.8102C55.886 56.5862 56.31 56.4742 56.782 56.4742C57.254 56.4742 57.642 56.5622 57.946 56.7382C58.25 56.9142 58.478 57.1822 58.63 57.5422C58.782 57.8942 58.858 58.3422 58.858 58.8862V61.7902C58.858 62.0382 58.794 62.2302 58.666 62.3662C58.538 62.4942 58.354 62.5582 58.114 62.5582C57.874 62.5582 57.686 62.4942 57.55 62.3662C57.422 62.2302 57.358 62.0382 57.358 61.7902V58.9582C57.358 58.5022 57.27 58.1702 57.094 57.9622C56.926 57.7542 56.662 57.6502 56.302 57.6502C55.862 57.6502 55.51 57.7902 55.246 58.0702C54.99 58.3422 54.862 58.7062 54.862 59.1622V61.7902C54.862 62.3022 54.61 62.5582 54.106 62.5582ZM63.1176 64.7422C62.6856 64.7422 62.2656 64.7022 61.8576 64.6222C61.4576 64.5422 61.0936 64.4182 60.7656 64.2502C60.6136 64.1702 60.5096 64.0742 60.4536 63.9622C60.4056 63.8502 60.3896 63.7342 60.4056 63.6142C60.4296 63.5022 60.4776 63.4022 60.5496 63.3142C60.6296 63.2262 60.7256 63.1662 60.8376 63.1342C60.9496 63.1022 61.0656 63.1182 61.1856 63.1822C61.5376 63.3582 61.8696 63.4702 62.1816 63.5182C62.5016 63.5742 62.7736 63.6022 62.9976 63.6022C63.5336 63.6022 63.9336 63.4702 64.1976 63.2062C64.4696 62.9502 64.6056 62.5662 64.6056 62.0542V60.9742H64.7136C64.5936 61.3822 64.3416 61.7102 63.9576 61.9582C63.5816 62.1982 63.1536 62.3182 62.6736 62.3182C62.1456 62.3182 61.6856 62.1982 61.2936 61.9582C60.9016 61.7102 60.5976 61.3662 60.3816 60.9262C60.1656 60.4862 60.0576 59.9742 60.0576 59.3902C60.0576 58.9502 60.1176 58.5542 60.2376 58.2022C60.3656 57.8422 60.5416 57.5342 60.7656 57.2782C60.9976 57.0222 61.2736 56.8262 61.5936 56.6902C61.9216 56.5462 62.2816 56.4742 62.6736 56.4742C63.1696 56.4742 63.6016 56.5982 63.9696 56.8462C64.3456 57.0862 64.5896 57.4062 64.7016 57.8062L64.5816 58.1062V57.2542C64.5816 57.0062 64.6456 56.8182 64.7736 56.6902C64.9096 56.5622 65.0936 56.4982 65.3256 56.4982C65.5656 56.4982 65.7496 56.5622 65.8776 56.6902C66.0056 56.8182 66.0696 57.0062 66.0696 57.2542V61.8742C66.0696 62.8262 65.8176 63.5422 65.3136 64.0222C64.8096 64.5022 64.0776 64.7422 63.1176 64.7422ZM63.0816 61.1782C63.3936 61.1782 63.6616 61.1062 63.8856 60.9622C64.1096 60.8182 64.2816 60.6142 64.4016 60.3502C64.5296 60.0782 64.5936 59.7582 64.5936 59.3902C64.5936 58.8382 64.4576 58.4062 64.1856 58.0942C63.9136 57.7742 63.5456 57.6142 63.0816 57.6142C62.7696 57.6142 62.5016 57.6862 62.2776 57.8302C62.0536 57.9742 61.8776 58.1782 61.7496 58.4422C61.6296 58.7062 61.5696 59.0222 61.5696 59.3902C61.5696 59.9422 61.7056 60.3782 61.9776 60.6982C62.2496 61.0182 62.6176 61.1782 63.0816 61.1782Z" fill="#F7F8F9"/>
<defs>
<filter id="filter0_d_1_140" x="0" y="0" width="88" height="88" filterUnits="userSpaceOnUse" color-interpolation-filters="sRGB">
<feFlood flood-opacity="0" result="BackgroundImageFix"/>
<feColorMatrix in="SourceAlpha" type="matrix" values="0 0 0 0 0 0 0 0 0 0 0 0 0 0 0 0 0 0 127 0" result="hardAlpha"/>
<feOffset dy="2"/>
<feGaussianBlur stdDeviation="2"/>
<feComposite in2="hardAlpha" operator="out"/>
<feColorMatrix type="matrix" values="0 0 0 0 0 0 0 0 0 0 0 0 0 0 0 0 0 0 0.25 0"/>
<feBlend mode="normal" in2="BackgroundImageFix" result="effect1_dropShadow_1_140"/>
<feBlend mode="normal" in="SourceGraphic" in2="effect1_dropShadow_1_140" result="shape"/>
</filter>
<clipPath id="clip0_1_140">
<rect width="22.53" height="33.4622" fill="white" transform="translate(32.735 16)"/>
</clipPath>
</defs>
</svg>
