<svg width="25" height="25" viewBox="0 0 25 25" fill="none" xmlns="http://www.w3.org/2000/svg">
<rect x="0.5" y="0.0390625" width="24" height="24" rx="12" fill="#D7E1FE"/>
<mask id="mask0_1407_312" style="mask-type:alpha" maskUnits="userSpaceOnUse" x="0" y="0" width="25" height="25">
<rect x="0.5" y="0.0390625" width="24" height="24" fill="#040921"/>
</mask>
<g mask="url(#mask0_1407_312)">
</g>
<g clip-path="url(#clip0_1407_312)">
<path d="M16.6588 14.2096C16.2558 14.2096 15.9301 14.5354 15.9301 14.9383V17.2271C15.9301 17.6293 15.6037 17.9557 15.2015 17.9557H7.18601C6.78377 17.9557 6.45735 17.6293 6.45735 17.2271V7.75434C6.45735 7.3521 6.7838 7.02568 7.18601 7.02568H11.4196C11.8225 7.02568 12.1483 6.69996 12.1483 6.29702C12.1483 5.89408 11.8225 5.56836 11.4196 5.56836H7.18601C5.98078 5.5683 5 6.54911 5 7.75434V17.2271C5 18.4323 5.98078 19.4131 7.18601 19.4131H15.2014C16.4066 19.4131 17.3874 18.433 17.3874 17.2271V14.9383C17.3874 14.5354 17.0617 14.2096 16.6588 14.2096Z" fill="#2B407D"/>
<path d="M19.1851 5.47503C18.6561 4.94602 17.9653 4.67931 17.2694 4.66475C16.5371 4.64872 15.8004 4.91394 15.2466 5.46846L10.3135 10.4016C9.59355 11.1245 9.19714 12.0834 9.19714 13.102V14.7343C9.19714 15.1372 9.52286 15.4629 9.9258 15.4629H11.558C12.5767 15.4629 13.5356 15.0665 14.2592 14.3459L19.1858 9.41929C20.2715 8.33289 20.2715 6.56221 19.1851 5.47503ZM13.2296 13.3149C12.783 13.7601 12.1884 14.0056 11.5581 14.0056H10.6545V13.1021C10.6545 12.4718 10.9001 11.8772 11.3445 11.4312L14.5966 8.17914L16.481 10.0635L13.2296 13.3149ZM18.1548 8.38972L17.5113 9.03316L15.627 7.14882L16.2704 6.50541C16.7907 5.98513 17.6359 5.9866 18.1547 6.50541C18.6736 7.02492 18.6736 7.87018 18.1548 8.38972Z" fill="#2B407D"/>
</g>
<defs>
<clipPath id="clip0_1407_312">
<rect width="15" height="15" fill="white" transform="translate(5 4.53906)"/>
</clipPath>
</defs>
</svg>
