<svg width="88" height="89" viewBox="0 0 88 89" fill="none" xmlns="http://www.w3.org/2000/svg">
<g filter="url(#filter0_d_84_368)">
<circle cx="44" cy="42.9497" r="35" fill="#C93131"/>
<circle cx="44" cy="42.9497" r="37.5" stroke="#F8F8F8" stroke-width="5"/>
</g>
<g clip-path="url(#clip0_84_368)">
<path d="M46.1705 17.2188H43.475V23.6833H46.1705V17.2188Z" fill="white"/>
<path d="M54.0883 45.0742H34.0054V47.9057H54.0883V45.0742Z" fill="#E4E4E4"/>
<path d="M48.0175 48.4446C48.0175 49.6775 49.0207 50.6807 50.2536 50.6807C51.4865 50.6807 52.4897 49.6775 52.4897 48.4446C52.4897 47.2117 51.4865 46.2085 50.2536 46.2085C49.016 46.2085 48.0175 47.2117 48.0175 48.4446Z" fill="#C6C6C6"/>
<path d="M35.7867 48.4353C35.7867 49.6683 36.79 50.6715 38.0229 50.6715C39.2558 50.6715 40.259 49.6683 40.259 48.4353C40.259 47.2024 39.2558 46.1992 38.0229 46.1992C36.79 46.2039 35.7867 47.2024 35.7867 48.4353Z" fill="#C6C6C6"/>
<path d="M38.7917 42.0785C39.7152 41.4034 40.3106 41.0894 41.206 41.0894H45.3173H49.4285C50.3286 41.0894 50.9193 41.4034 51.8428 42.0785C52.7194 42.7161 55.2603 44.5303 55.2603 44.5303H45.3126H35.3649C35.3742 44.5303 37.9151 42.7161 38.7917 42.0785Z" fill="white"/>
<path d="M50.5255 42.5471C49.8927 42.1205 49.4848 41.9189 48.866 41.9189H46.4283H45.3548H41.7685C41.1544 41.9189 40.7466 42.1205 40.109 42.5471C39.509 42.9503 38.4917 43.7191 38.4917 43.7191H44.6281H45.3173H52.1428C52.1428 43.7191 51.1256 42.9503 50.5255 42.5471Z" fill="white"/>
<path d="M50.2536 47.1509C49.5364 47.1509 48.9551 47.7322 48.9551 48.4494C48.9551 49.1667 49.5364 49.7433 50.2536 49.7433C50.9709 49.7433 51.5522 49.162 51.5522 48.4494C51.5475 47.7275 50.9709 47.1509 50.2536 47.1509Z" fill="#E4E4E4"/>
<path d="M38.0229 47.1416C37.3057 47.1416 36.7244 47.7229 36.7244 48.4355C36.7244 49.1527 37.3057 49.734 38.0229 49.734C38.7402 49.734 39.3215 49.1527 39.3215 48.4355C39.3215 47.7229 38.7402 47.1416 38.0229 47.1416Z" fill="#E4E4E4"/>
<path d="M55.2649 48.4353H53.0616C53.0569 47.6009 52.6913 46.8508 52.11 46.3398H55.2602V48.4353H55.2649Z" fill="white"/>
<path d="M33.6163 44.5303H40.8357H47.4456H55.265V46.3398H52.1147C51.6178 45.8991 50.9709 45.6366 50.2536 45.6366C49.5411 45.6366 48.8895 45.9038 48.3925 46.3398C47.8112 46.8508 47.4456 47.6008 47.4409 48.4353H40.831C40.831 47.6008 40.47 46.8508 39.8934 46.3398C39.3965 45.8944 38.7402 45.6272 38.0229 45.6272C37.3057 45.6272 36.6494 45.8991 36.1525 46.3398H32.735V45.4772C32.735 45.4772 32.735 44.5303 33.6163 44.5303Z" fill="white"/>
<path d="M36.1571 46.3398C35.5805 46.8555 35.2149 47.6009 35.2149 48.4353H32.735V46.3398H36.1571Z" fill="white"/>
<path d="M51.6037 28.8447C51.6037 29.5901 50.999 30.1949 50.2536 30.1949H39.3917C38.6464 30.1949 38.0416 29.5901 38.0416 28.8447C38.0416 28.0994 38.6464 27.4946 39.3917 27.4946H50.2583C51.0036 27.4946 51.6037 28.0994 51.6037 28.8447Z" fill="white"/>
<path d="M40.9997 31.5729C41.3091 31.8823 41.3091 32.3886 40.9997 32.698L36.4665 37.2312C36.1571 37.5406 35.6508 37.5406 35.3414 37.2312C35.032 36.9218 35.032 36.4155 35.3414 36.1061L39.8746 31.5729C40.1887 31.2635 40.6903 31.2635 40.9997 31.5729Z" fill="white"/>
<path d="M48.6457 31.5729C48.9551 31.2635 49.4614 31.2635 49.7708 31.5729L54.304 36.1061C54.6134 36.4155 54.6134 36.9218 54.304 37.2312C53.9946 37.5406 53.4883 37.5406 53.1789 37.2312L48.6457 32.698C48.3363 32.3839 48.3363 31.8823 48.6457 31.5729Z" fill="white"/>
<path d="M44.7969 31.9248C45.2376 31.9248 45.5939 32.2811 45.5939 32.7217V39.1348C45.5939 39.5754 45.2376 39.9317 44.7969 39.9317C44.3563 39.9317 44 39.5754 44 39.1348V32.7217C44 32.2811 44.3563 31.9248 44.7969 31.9248Z" fill="white"/>
<path d="M41.9467 34.8359C42.1389 34.8359 42.2889 34.9906 42.2889 35.1828V37.9628C42.2889 38.155 42.1342 38.3097 41.942 38.3097C41.7498 38.3097 41.5951 38.155 41.5951 37.9628V35.1828C41.5998 34.9906 41.7545 34.8359 41.9467 34.8359Z" fill="#C6C6C6"/>
<path d="M47.6706 34.8359C47.8628 34.8359 48.0128 34.9906 48.0128 35.1828V37.9628C48.0128 38.155 47.8581 38.3097 47.6659 38.3097C47.4737 38.3097 47.319 38.155 47.319 37.9628V35.1828C47.3283 34.9906 47.483 34.8359 47.6706 34.8359Z" fill="#C6C6C6"/>
<path d="M40.0715 24.7488V27.4959H44.7641V20C42.167 20.0328 40.0715 22.1424 40.0715 24.7488Z" fill="#C6C6C6"/>
<path d="M49.5786 24.7477C49.5786 22.1224 47.4503 19.9941 44.8251 19.9941C44.8064 19.9941 44.7829 19.9988 44.7642 19.9988V27.4948H49.5786V24.7477Z" fill="white"/>
<path d="M42.5092 24.4473C43.0115 24.4473 43.4186 24.0401 43.4186 23.5379C43.4186 23.0356 43.0115 22.6284 42.5092 22.6284C42.0069 22.6284 41.5997 23.0356 41.5997 23.5379C41.5997 24.0401 42.0069 24.4473 42.5092 24.4473Z" fill="white"/>
</g>
<path d="M22.74 63.6807C22.476 63.6807 22.272 63.6127 22.128 63.4767C21.992 63.3327 21.924 63.1287 21.924 62.8647V56.0367C21.924 55.7727 21.992 55.5727 22.128 55.4367C22.272 55.2927 22.476 55.2207 22.74 55.2207H25.62C26.212 55.2207 26.716 55.3087 27.132 55.4847C27.548 55.6607 27.864 55.9127 28.08 56.2407C28.304 56.5687 28.416 56.9607 28.416 57.4167C28.416 57.9287 28.268 58.3607 27.972 58.7127C27.676 59.0647 27.272 59.3007 26.76 59.4207V59.2407C27.352 59.3287 27.812 59.5527 28.14 59.9127C28.468 60.2727 28.632 60.7407 28.632 61.3167C28.632 62.0687 28.376 62.6527 27.864 63.0687C27.36 63.4767 26.656 63.6807 25.752 63.6807H22.74ZM23.4 62.5167H25.56C26.104 62.5167 26.504 62.4127 26.76 62.2047C27.016 61.9887 27.144 61.6687 27.144 61.2447C27.144 60.8127 27.016 60.4927 26.76 60.2847C26.504 60.0767 26.104 59.9727 25.56 59.9727H23.4V62.5167ZM23.4 58.8087H25.356C25.884 58.8087 26.276 58.7087 26.532 58.5087C26.796 58.3007 26.928 57.9967 26.928 57.5967C26.928 57.1967 26.796 56.8967 26.532 56.6967C26.276 56.4887 25.884 56.3847 25.356 56.3847H23.4V58.8087ZM32.7177 63.8007C32.1097 63.8007 31.5817 63.6767 31.1337 63.4287C30.6857 63.1807 30.3377 62.8287 30.0897 62.3727C29.8417 61.9087 29.7177 61.3647 29.7177 60.7407C29.7177 60.2687 29.7857 59.8487 29.9217 59.4807C30.0657 59.1047 30.2697 58.7847 30.5337 58.5207C30.7977 58.2487 31.1137 58.0447 31.4817 57.9087C31.8497 57.7647 32.2617 57.6927 32.7177 57.6927C33.3257 57.6927 33.8537 57.8167 34.3017 58.0647C34.7497 58.3127 35.0977 58.6647 35.3457 59.1207C35.5937 59.5767 35.7177 60.1167 35.7177 60.7407C35.7177 61.2127 35.6457 61.6367 35.5017 62.0127C35.3657 62.3887 35.1657 62.7127 34.9017 62.9847C34.6377 63.2487 34.3217 63.4527 33.9537 63.5967C33.5857 63.7327 33.1737 63.8007 32.7177 63.8007ZM32.7177 62.6607C33.0137 62.6607 33.2737 62.5887 33.4977 62.4447C33.7217 62.3007 33.8937 62.0887 34.0137 61.8087C34.1417 61.5207 34.2057 61.1647 34.2057 60.7407C34.2057 60.1007 34.0697 59.6247 33.7977 59.3127C33.5257 58.9927 33.1657 58.8327 32.7177 58.8327C32.4217 58.8327 32.1617 58.9047 31.9377 59.0487C31.7137 59.1847 31.5377 59.3967 31.4097 59.6847C31.2897 59.9647 31.2297 60.3167 31.2297 60.7407C31.2297 61.3727 31.3657 61.8527 31.6377 62.1807C31.9097 62.5007 32.2697 62.6607 32.7177 62.6607ZM39.6318 63.8007C39.0238 63.8007 38.4958 63.6767 38.0478 63.4287C37.5998 63.1807 37.2518 62.8287 37.0038 62.3727C36.7558 61.9087 36.6318 61.3647 36.6318 60.7407C36.6318 60.2687 36.6998 59.8487 36.8358 59.4807C36.9798 59.1047 37.1838 58.7847 37.4478 58.5207C37.7118 58.2487 38.0278 58.0447 38.3958 57.9087C38.7638 57.7647 39.1758 57.6927 39.6318 57.6927C40.2398 57.6927 40.7678 57.8167 41.2158 58.0647C41.6638 58.3127 42.0118 58.6647 42.2598 59.1207C42.5078 59.5767 42.6318 60.1167 42.6318 60.7407C42.6318 61.2127 42.5598 61.6367 42.4158 62.0127C42.2798 62.3887 42.0798 62.7127 41.8158 62.9847C41.5518 63.2487 41.2358 63.4527 40.8678 63.5967C40.4998 63.7327 40.0878 63.8007 39.6318 63.8007ZM39.6318 62.6607C39.9278 62.6607 40.1878 62.5887 40.4118 62.4447C40.6358 62.3007 40.8078 62.0887 40.9278 61.8087C41.0558 61.5207 41.1198 61.1647 41.1198 60.7407C41.1198 60.1007 40.9838 59.6247 40.7118 59.3127C40.4398 58.9927 40.0798 58.8327 39.6318 58.8327C39.3358 58.8327 39.0758 58.9047 38.8518 59.0487C38.6278 59.1847 38.4518 59.3967 38.3238 59.6847C38.2038 59.9647 38.1438 60.3167 38.1438 60.7407C38.1438 61.3727 38.2798 61.8527 38.5518 62.1807C38.8238 62.5007 39.1838 62.6607 39.6318 62.6607ZM44.6138 63.7767C44.3738 63.7767 44.1898 63.7127 44.0618 63.5847C43.9338 63.4487 43.8698 63.2567 43.8698 63.0087V55.8807C43.8698 55.6327 43.9338 55.4447 44.0618 55.3167C44.1898 55.1887 44.3738 55.1247 44.6138 55.1247C44.8538 55.1247 45.0378 55.1887 45.1658 55.3167C45.3018 55.4447 45.3698 55.6327 45.3698 55.8807V60.3087H45.3938L47.3738 58.2207C47.5338 58.0607 47.6738 57.9367 47.7938 57.8487C47.9138 57.7607 48.0778 57.7167 48.2858 57.7167C48.4938 57.7167 48.6498 57.7727 48.7538 57.8847C48.8658 57.9887 48.9218 58.1167 48.9218 58.2687C48.9218 58.4207 48.8498 58.5727 48.7058 58.7247L46.6178 60.9327V60.3087L48.9098 62.7807C49.0538 62.9327 49.1178 63.0887 49.1018 63.2487C49.0938 63.4007 49.0298 63.5287 48.9098 63.6327C48.7898 63.7287 48.6378 63.7767 48.4538 63.7767C48.2298 63.7767 48.0498 63.7327 47.9138 63.6447C47.7858 63.5567 47.6418 63.4247 47.4818 63.2487L45.3938 61.0647H45.3698V63.0087C45.3698 63.5207 45.1178 63.7767 44.6138 63.7767ZM51.0474 63.7647C50.8074 63.7647 50.6234 63.6927 50.4954 63.5487C50.3674 63.4047 50.3034 63.2047 50.3034 62.9487V58.5447C50.3034 58.2807 50.3674 58.0807 50.4954 57.9447C50.6234 57.8007 50.8074 57.7287 51.0474 57.7287C51.2874 57.7287 51.4714 57.8007 51.5994 57.9447C51.7354 58.0807 51.8034 58.2807 51.8034 58.5447V62.9487C51.8034 63.2047 51.7394 63.4047 51.6114 63.5487C51.4834 63.6927 51.2954 63.7647 51.0474 63.7647ZM51.0474 56.6127C50.7674 56.6127 50.5474 56.5447 50.3874 56.4087C50.2354 56.2647 50.1594 56.0687 50.1594 55.8207C50.1594 55.5647 50.2354 55.3687 50.3874 55.2327C50.5474 55.0967 50.7674 55.0287 51.0474 55.0287C51.3354 55.0287 51.5554 55.0967 51.7074 55.2327C51.8594 55.3687 51.9354 55.5647 51.9354 55.8207C51.9354 56.0687 51.8594 56.2647 51.7074 56.4087C51.5554 56.5447 51.3354 56.6127 51.0474 56.6127ZM54.106 63.7767C53.866 63.7767 53.682 63.7127 53.554 63.5847C53.426 63.4487 53.362 63.2567 53.362 63.0087V58.4727C53.362 58.2247 53.426 58.0367 53.554 57.9087C53.682 57.7807 53.862 57.7167 54.094 57.7167C54.326 57.7167 54.506 57.7807 54.634 57.9087C54.762 58.0367 54.826 58.2247 54.826 58.4727V59.2887L54.694 58.9887C54.87 58.5647 55.142 58.2447 55.51 58.0287C55.886 57.8047 56.31 57.6927 56.782 57.6927C57.254 57.6927 57.642 57.7807 57.946 57.9567C58.25 58.1327 58.478 58.4007 58.63 58.7607C58.782 59.1127 58.858 59.5607 58.858 60.1047V63.0087C58.858 63.2567 58.794 63.4487 58.666 63.5847C58.538 63.7127 58.354 63.7767 58.114 63.7767C57.874 63.7767 57.686 63.7127 57.55 63.5847C57.422 63.4487 57.358 63.2567 57.358 63.0087V60.1767C57.358 59.7207 57.27 59.3887 57.094 59.1807C56.926 58.9727 56.662 58.8687 56.302 58.8687C55.862 58.8687 55.51 59.0087 55.246 59.2887C54.99 59.5607 54.862 59.9247 54.862 60.3807V63.0087C54.862 63.5207 54.61 63.7767 54.106 63.7767ZM63.1176 65.9607C62.6856 65.9607 62.2656 65.9207 61.8576 65.8407C61.4576 65.7607 61.0936 65.6367 60.7656 65.4687C60.6136 65.3887 60.5096 65.2927 60.4536 65.1807C60.4056 65.0687 60.3896 64.9527 60.4056 64.8327C60.4296 64.7207 60.4776 64.6207 60.5496 64.5327C60.6296 64.4447 60.7256 64.3847 60.8376 64.3527C60.9496 64.3207 61.0656 64.3367 61.1856 64.4007C61.5376 64.5767 61.8696 64.6887 62.1816 64.7367C62.5016 64.7927 62.7736 64.8207 62.9976 64.8207C63.5336 64.8207 63.9336 64.6887 64.1976 64.4247C64.4696 64.1687 64.6056 63.7847 64.6056 63.2727V62.1927H64.7136C64.5936 62.6007 64.3416 62.9287 63.9576 63.1767C63.5816 63.4167 63.1536 63.5367 62.6736 63.5367C62.1456 63.5367 61.6856 63.4167 61.2936 63.1767C60.9016 62.9287 60.5976 62.5847 60.3816 62.1447C60.1656 61.7047 60.0576 61.1927 60.0576 60.6087C60.0576 60.1687 60.1176 59.7727 60.2376 59.4207C60.3656 59.0607 60.5416 58.7527 60.7656 58.4967C60.9976 58.2407 61.2736 58.0447 61.5936 57.9087C61.9216 57.7647 62.2816 57.6927 62.6736 57.6927C63.1696 57.6927 63.6016 57.8167 63.9696 58.0647C64.3456 58.3047 64.5896 58.6247 64.7016 59.0247L64.5816 59.3247V58.4727C64.5816 58.2247 64.6456 58.0367 64.7736 57.9087C64.9096 57.7807 65.0936 57.7167 65.3256 57.7167C65.5656 57.7167 65.7496 57.7807 65.8776 57.9087C66.0056 58.0367 66.0696 58.2247 66.0696 58.4727V63.0927C66.0696 64.0447 65.8176 64.7607 65.3136 65.2407C64.8096 65.7207 64.0776 65.9607 63.1176 65.9607ZM63.0816 62.3967C63.3936 62.3967 63.6616 62.3247 63.8856 62.1807C64.1096 62.0367 64.2816 61.8327 64.4016 61.5687C64.5296 61.2967 64.5936 60.9767 64.5936 60.6087C64.5936 60.0567 64.4576 59.6247 64.1856 59.3127C63.9136 58.9927 63.5456 58.8327 63.0816 58.8327C62.7696 58.8327 62.5016 58.9047 62.2776 59.0487C62.0536 59.1927 61.8776 59.3967 61.7496 59.6607C61.6296 59.9247 61.5696 60.2407 61.5696 60.6087C61.5696 61.1607 61.7056 61.5967 61.9776 61.9167C62.2496 62.2367 62.6176 62.3967 63.0816 62.3967Z" fill="#F7F8F9"/>
<defs>
<filter id="filter0_d_84_368" x="0" y="0.949707" width="88" height="88" filterUnits="userSpaceOnUse" color-interpolation-filters="sRGB">
<feFlood flood-opacity="0" result="BackgroundImageFix"/>
<feColorMatrix in="SourceAlpha" type="matrix" values="0 0 0 0 0 0 0 0 0 0 0 0 0 0 0 0 0 0 127 0" result="hardAlpha"/>
<feOffset dy="2"/>
<feGaussianBlur stdDeviation="2"/>
<feComposite in2="hardAlpha" operator="out"/>
<feColorMatrix type="matrix" values="0 0 0 0 0 0 0 0 0 0 0 0 0 0 0 0 0 0 0.25 0"/>
<feBlend mode="normal" in2="BackgroundImageFix" result="effect1_dropShadow_84_368"/>
<feBlend mode="normal" in="SourceGraphic" in2="effect1_dropShadow_84_368" result="shape"/>
</filter>
<clipPath id="clip0_84_368">
<rect width="22.53" height="33.4622" fill="white" transform="translate(32.735 17.2188)"/>
</clipPath>
</defs>
</svg>
