<svg width="28" height="24" viewBox="0 0 28 24" fill="none" xmlns="http://www.w3.org/2000/svg">
<path d="M4.41667 17.9264C4.41667 18.6337 4.69762 19.312 5.19772 19.812C5.69782 20.3121 6.37609 20.5931 7.08334 20.5931C7.79058 20.5931 8.46886 20.3121 8.96896 19.812C9.46905 19.312 9.75 18.6337 9.75 17.9264C9.75 17.2192 9.46905 16.5409 8.96896 16.0408C8.46886 15.5407 7.79058 15.2598 7.08334 15.2598C6.37609 15.2598 5.69782 15.5407 5.19772 16.0408C4.69762 16.5409 4.41667 17.2192 4.41667 17.9264ZM17.75 17.9264C17.75 18.6337 18.031 19.312 18.5311 19.812C19.0312 20.3121 19.7094 20.5931 20.4167 20.5931C21.1239 20.5931 21.8022 20.3121 22.3023 19.812C22.8024 19.312 23.0833 18.6337 23.0833 17.9264C23.0833 17.2192 22.8024 16.5409 22.3023 16.0408C21.8022 15.5407 21.1239 15.2598 20.4167 15.2598C19.7094 15.2598 19.0312 15.5407 18.5311 16.0408C18.031 16.5409 17.75 17.2192 17.75 17.9264Z" stroke="#2B407D" stroke-width="1.8" stroke-linecap="round" stroke-linejoin="round"/>
<path d="M4.41667 17.9264H1.75V9.92643M1.75 9.92643L4.41667 3.25977H16.4167L21.75 9.92643M1.75 9.92643H21.75M21.75 9.92643H23.0833C23.7906 9.92643 24.4689 10.2074 24.969 10.7075C25.469 11.2076 25.75 11.8859 25.75 12.5931V17.9264H23.0833M17.75 17.9264H9.75M13.75 9.92643V3.25977" stroke="#2B407D" stroke-width="1.8" stroke-linecap="round" stroke-linejoin="round"/>
</svg>
