<svg width="51" height="51" viewBox="0 0 51 51" fill="none" xmlns="http://www.w3.org/2000/svg">
<path d="M25.3916 4.38105C29.9968 4.38105 34.4133 6.21044 37.6697 9.46679C40.926 12.7231 42.7554 17.1397 42.7554 21.7448C42.7554 29.0822 37.5997 37.0784 27.4218 45.8191C26.8559 46.3052 26.1343 46.5722 25.3883 46.5716C24.6422 46.5709 23.9211 46.3027 23.356 45.8155L22.6829 45.2314C12.9556 36.7187 8.02782 28.9183 8.02782 21.7448C8.02782 17.1397 9.85721 12.7231 13.1136 9.46679C16.3699 6.21044 20.7864 4.38105 25.3916 4.38105ZM25.3916 15.0665C23.6204 15.0665 21.9217 15.7701 20.6693 17.0225C19.4168 18.2749 18.7132 19.9736 18.7132 21.7448C18.7132 23.5161 19.4168 25.2147 20.6693 26.4672C21.9217 27.7196 23.6204 28.4232 25.3916 28.4232C27.1628 28.4232 28.8615 27.7196 30.1139 26.4672C31.3664 25.2147 32.07 23.5161 32.07 21.7448C32.07 19.9736 31.3664 18.2749 30.1139 17.0225C28.8615 15.7701 27.1628 15.0665 25.3916 15.0665Z" fill="#0EE571"/>
<circle cx="25.3913" cy="21.6634" r="10.3169" fill="white"/>
<path opacity="0.5" fill-rule="evenodd" clip-rule="evenodd" d="M24.8333 15.1667H24.25C22.6001 15.1667 21.7751 15.1667 21.2626 15.6792C20.75 16.1918 20.75 17.0168 20.75 18.6667V26.3958H28.3333V24.3542V23.4792V18.6667C28.3333 17.0168 28.3333 16.1918 27.8208 15.6792C27.3082 15.1667 26.4832 15.1667 24.8333 15.1667Z" fill="#00FF19"/>
<path d="M20.75 26.3958H20.1667C19.925 26.3958 19.7292 26.5917 19.7292 26.8333C19.7292 27.0749 19.925 27.2708 20.1667 27.2708H29.0625C29.3041 27.2708 29.5 27.0749 29.5 26.8333C29.5 26.5917 29.3041 26.3958 29.0625 26.3958H28.3333H20.75Z" fill="#1C274C"/>
<path d="M24.9168 20.0585C25.0411 19.8513 24.974 19.5826 24.7667 19.4582C24.5596 19.3339 24.2908 19.4011 24.1665 19.6083L23.2915 21.0666C23.2104 21.2018 23.2083 21.3701 23.2859 21.5073C23.3636 21.6445 23.509 21.7292 23.6667 21.7292H24.644L24.1665 22.5249C24.0422 22.7321 24.1094 23.0009 24.3166 23.1252C24.5238 23.2495 24.7925 23.1824 24.9168 22.9752L25.7918 21.5168C25.8729 21.3817 25.875 21.2133 25.7974 21.0762C25.7197 20.939 25.5743 20.8542 25.4167 20.8542H24.4394L24.9168 20.0585Z" fill="#1C274C"/>
<path d="M28.3333 24.3542H29.25C29.4686 24.3542 29.6458 24.5314 29.6458 24.75V24.7917C29.6458 25.5166 30.2335 26.1042 30.9583 26.1042C31.6832 26.1042 32.2708 25.5166 32.2708 24.7917V18.4344C32.2708 18.343 32.2708 18.2799 32.2674 18.2184C32.2349 17.6404 31.9746 17.0988 31.5435 16.7123C31.4976 16.6712 31.4484 16.6318 31.377 16.5747L30.6483 15.9917C30.4596 15.8408 30.1843 15.8714 30.0333 16.0601C29.8824 16.2487 29.913 16.524 30.1017 16.675L30.821 17.2504C30.9053 17.3179 30.9341 17.3412 30.9594 17.3638C31.2181 17.5957 31.3743 17.9207 31.3938 18.2675C31.3957 18.3014 31.3958 18.3385 31.3958 18.4465V18.6667H30.9583C30.4751 18.6667 30.0833 19.0584 30.0833 19.5417V20.9527C30.0833 21.3293 30.3243 21.6637 30.6817 21.7828L31.3958 22.0208V24.7917C31.3958 25.0333 31.1999 25.2292 30.9583 25.2292C30.7167 25.2292 30.5208 25.0333 30.5208 24.7917V24.75C30.5208 24.0482 29.9518 23.4792 29.25 23.4792H28.3333V24.3542Z" fill="#1C274C"/>
</svg>
