<svg width="25" height="25" viewBox="0 0 25 25" fill="none" xmlns="http://www.w3.org/2000/svg">
<mask id="mask0_373_665" style="mask-type:alpha" maskUnits="userSpaceOnUse" x="0" y="0" width="25" height="25">
<rect x="0.5" y="0.173828" width="24" height="24" fill="#040921"/>
</mask>
<g mask="url(#mask0_373_665)">
</g>
<g clip-path="url(#clip0_373_665)">
<path d="M18.045 15.0686C17.5077 15.0686 17.0735 15.5029 17.0735 16.0401V19.0918C17.0735 19.6282 16.6382 20.0634 16.1019 20.0634H5.41468C4.87836 20.0634 4.44313 19.6281 4.44313 19.0918V6.46151C4.44313 5.92519 4.8784 5.48997 5.41468 5.48997H11.0595C11.5967 5.48997 12.031 5.05568 12.031 4.51842C12.031 3.98116 11.5967 3.54688 11.0595 3.54688H5.41468C3.80771 3.5468 2.5 4.85455 2.5 6.46151V19.0918C2.5 20.6988 3.80771 22.0065 5.41468 22.0065H16.1019C17.7088 22.0065 19.0165 20.6998 19.0165 19.0918V16.0402C19.0166 15.5029 18.5823 15.0686 18.045 15.0686Z" fill="#2B407D"/>
<path d="M21.4135 3.42308C20.7081 2.71774 19.7871 2.36212 18.8592 2.34271C17.8828 2.32134 16.9005 2.67497 16.1622 3.41433L9.58464 9.99184C8.62474 10.9556 8.09619 12.2342 8.09619 13.5924V15.7687C8.09619 16.306 8.53048 16.7403 9.06774 16.7403H11.244C12.6023 16.7403 13.8809 16.2117 14.8456 15.2508L21.4144 8.68209C22.862 7.23356 22.862 4.87267 21.4135 3.42308ZM13.4729 13.8762C12.8773 14.4698 12.0845 14.7972 11.2441 14.7972H10.0393V13.5925C10.0393 12.7521 10.3667 11.9593 10.9594 11.3647L15.2955 7.02857L17.8079 9.54102L13.4729 13.8762ZM20.0397 7.30934L19.1818 8.16726L16.6693 5.6548L17.5272 4.79693C18.2209 4.10323 19.3479 4.10518 20.0396 4.79693C20.7314 5.48961 20.7314 6.61662 20.0397 7.30934Z" fill="#2B407D"/>
</g>
<defs>
<clipPath id="clip0_373_665">
<rect width="20" height="20" fill="white" transform="translate(2.5 2.17383)"/>
</clipPath>
</defs>
</svg>
