<svg width="15" height="15" viewBox="0 0 15 15" fill="none" xmlns="http://www.w3.org/2000/svg">
<g clip-path="url(#clip0_84_402)">
<path d="M7.49996 3.27637C8.25119 3.27637 8.97164 3.57479 9.50284 4.10599C10.034 4.63718 10.3325 5.35764 10.3325 6.10887C10.3325 6.86009 10.034 7.58055 9.50284 8.11175C8.97164 8.64294 8.25119 8.94137 7.49996 8.94137C6.74873 8.94137 6.02828 8.64294 5.49708 8.11175C4.96588 7.58055 4.66746 6.86009 4.66746 6.10887C4.66746 5.35764 4.96588 4.63718 5.49708 4.10599C6.02828 3.57479 6.74873 3.27637 7.49996 3.27637ZM7.49996 14.6064C7.49996 14.6064 13.165 14.6064 13.165 13.1901C13.165 11.4906 10.4033 9.64949 7.49996 9.64949C4.59665 9.64949 1.83496 11.4906 1.83496 13.1901C1.83496 14.6064 7.49996 14.6064 7.49996 14.6064Z" fill="white"/>
</g>
<defs>
<clipPath id="clip0_84_402">
<rect width="14" height="14" fill="white" transform="translate(0.5 0.942871)"/>
</clipPath>
</defs>
</svg>
