<svg width="15" height="15" viewBox="0 0 15 15" fill="none" xmlns="http://www.w3.org/2000/svg">
<path d="M12.75 7.94287V3.56787C12.75 3.33581 12.6578 3.11325 12.4937 2.94915C12.3296 2.78506 12.1071 2.69287 11.875 2.69287H3.125C2.89294 2.69287 2.67038 2.78506 2.50628 2.94915C2.34219 3.11325 2.25 3.33581 2.25 3.56787V12.3179C2.25 12.5499 2.34219 12.7725 2.50628 12.9366C2.67038 13.1007 2.89294 13.1929 3.125 13.1929H7.5" stroke="white" stroke-width="1.16667" stroke-linecap="round" stroke-linejoin="round"/>
<path d="M9.83337 12.0264C10.7999 12.0264 11.5834 11.2429 11.5834 10.2764C11.5834 9.30987 10.7999 8.52637 9.83337 8.52637C8.86688 8.52637 8.08337 9.30987 8.08337 10.2764C8.08337 11.2429 8.86688 12.0264 9.83337 12.0264Z" stroke="white" stroke-width="1.16667"/>
<path d="M11.2917 11.4427L12.75 12.6094M4.58337 5.60938H10.4167M4.58337 7.94271H6.91671" stroke="white" stroke-width="1.16667" stroke-linecap="round" stroke-linejoin="round"/>
</svg>
