<svg width="47" height="14" viewBox="0 0 47 14" fill="none" xmlns="http://www.w3.org/2000/svg">
<rect x="0.5" width="14" height="14" rx="7" fill="#D7E1FE"/>
<path d="M5.60216 3.4757C5.60216 3.4038 5.5736 3.33484 5.52275 3.284C5.47191 3.23315 5.40295 3.20459 5.33105 3.20459C5.25914 3.20459 5.19019 3.23315 5.13934 3.284C5.0885 3.33484 5.05994 3.4038 5.05994 3.4757V5.10237C5.05987 5.41486 5.16778 5.71779 5.3654 5.95987C5.56301 6.20194 5.8382 6.36831 6.14438 6.43081V10.5246C6.14438 10.5965 6.17294 10.6655 6.22379 10.7163C6.27463 10.7671 6.34359 10.7957 6.41549 10.7957C6.4874 10.7957 6.55635 10.7671 6.6072 10.7163C6.65804 10.6655 6.6866 10.5965 6.6866 10.5246V6.43081C6.99279 6.36831 7.26797 6.20194 7.46559 5.95987C7.6632 5.71779 7.77111 5.41486 7.77105 5.10237V3.4757C7.77105 3.4038 7.74248 3.33484 7.69164 3.284C7.6408 3.23315 7.57184 3.20459 7.49994 3.20459C7.42803 3.20459 7.35908 3.23315 7.30823 3.284C7.25739 3.33484 7.22883 3.4038 7.22883 3.4757V5.10237C7.22891 5.27063 7.17681 5.43478 7.0797 5.5722C6.98259 5.70961 6.84525 5.81352 6.6866 5.86961V3.4757C6.6866 3.4038 6.65804 3.33484 6.6072 3.284C6.55635 3.23315 6.4874 3.20459 6.41549 3.20459C6.34359 3.20459 6.27463 3.23315 6.22379 3.284C6.17294 3.33484 6.14438 3.4038 6.14438 3.4757V5.86961C5.98574 5.81352 5.8484 5.70961 5.75129 5.5722C5.65417 5.43478 5.60207 5.27063 5.60216 5.10237V3.4757ZM9.39771 10.5246V7.00015H8.58438C8.51248 7.00015 8.44352 6.97158 8.39268 6.92074C8.34183 6.8699 8.31327 6.80094 8.31327 6.72903V4.56015C8.31327 4.20065 8.49003 3.86447 8.73132 3.62264C8.97315 3.38135 9.30933 3.20459 9.66883 3.20459C9.74073 3.20459 9.80969 3.23315 9.86053 3.284C9.91137 3.33484 9.93994 3.4038 9.93994 3.4757V10.5246C9.93994 10.5965 9.91137 10.6655 9.86053 10.7163C9.80969 10.7671 9.74073 10.7957 9.66883 10.7957C9.59692 10.7957 9.52796 10.7671 9.47712 10.7163C9.42628 10.6655 9.39771 10.5965 9.39771 10.5246Z" fill="#2B407D"/>
<rect x="16.5" width="14" height="14" rx="7" fill="#D7E1FE"/>
<path fill-rule="evenodd" clip-rule="evenodd" d="M21.6666 2.41602C21.3019 2.41602 20.9522 2.56088 20.6943 2.81874C20.4365 3.07661 20.2916 3.42634 20.2916 3.79102C20.2916 4.15569 20.4365 4.50542 20.6943 4.76329C20.9522 5.02115 21.3019 5.16602 21.6666 5.16602C22.0313 5.16602 22.381 5.02115 22.6389 4.76329C22.8967 4.50542 23.0416 4.15569 23.0416 3.79102C23.0416 3.42634 22.8967 3.07661 22.6389 2.81874C22.381 2.56088 22.0313 2.41602 21.6666 2.41602ZM21.2083 3.79102C21.2083 3.66946 21.2566 3.55288 21.3425 3.46693C21.4285 3.38097 21.545 3.33268 21.6666 3.33268C21.7882 3.33268 21.9047 3.38097 21.9907 3.46693C22.0766 3.55288 22.1249 3.66946 22.1249 3.79102C22.1249 3.91257 22.0766 4.02915 21.9907 4.11511C21.9047 4.20106 21.7882 4.24935 21.6666 4.24935C21.545 4.24935 21.4285 4.20106 21.3425 4.11511C21.2566 4.02915 21.2083 3.91257 21.2083 3.79102ZM25.3333 2.41602C24.9686 2.41602 24.6189 2.56088 24.361 2.81874C24.1031 3.07661 23.9583 3.42634 23.9583 3.79102C23.9583 4.15569 24.1031 4.50542 24.361 4.76329C24.6189 5.02115 24.9686 5.16602 25.3333 5.16602C25.6979 5.16602 26.0477 5.02115 26.3055 4.76329C26.5634 4.50542 26.7083 4.15569 26.7083 3.79102C26.7083 3.42634 26.5634 3.07661 26.3055 2.81874C26.0477 2.56088 25.6979 2.41602 25.3333 2.41602ZM24.8749 3.79102C24.8749 3.66946 24.9232 3.55288 25.0092 3.46693C25.0951 3.38097 25.2117 3.33268 25.3333 3.33268C25.4548 3.33268 25.5714 3.38097 25.6574 3.46693C25.7433 3.55288 25.7916 3.66946 25.7916 3.79102C25.7916 3.91257 25.7433 4.02915 25.6574 4.11511C25.5714 4.20106 25.4548 4.24935 25.3333 4.24935C25.2117 4.24935 25.0951 4.20106 25.0092 4.11511C24.9232 4.02915 24.8749 3.91257 24.8749 3.79102ZM19.8805 6.62397C19.8689 6.49712 19.884 6.36925 19.9246 6.24853C19.9653 6.12781 20.0306 6.01688 20.1165 5.92283C20.2024 5.82877 20.307 5.75365 20.4236 5.70226C20.5401 5.65087 20.6661 5.62434 20.7935 5.62435H22.5397C22.6671 5.62434 22.7931 5.65087 22.9096 5.70226C23.0262 5.75365 23.1308 5.82877 23.2167 5.92283C23.3026 6.01688 23.3679 6.12781 23.4086 6.24853C23.4492 6.36925 23.4642 6.49712 23.4527 6.62397L23.0398 11.1661C23.0294 11.2799 22.9768 11.3858 22.8923 11.4629C22.8078 11.54 22.6976 11.5827 22.5833 11.5827H20.7499C20.6355 11.5827 20.5252 11.5399 20.4407 11.4627C20.3563 11.3855 20.3037 11.2796 20.2934 11.1656L19.8805 6.62397ZM20.7935 6.54102L21.1684 10.666H22.1648L22.5397 6.54102H20.7935ZM24.7924 5.62435C24.5805 5.62437 24.3752 5.69781 24.2113 5.83218C24.0474 5.96655 23.9352 6.15355 23.8936 6.36135L23.5086 8.28452C23.4953 8.35102 23.497 8.41965 23.5134 8.48545C23.5299 8.55125 23.5607 8.61258 23.6037 8.66502C23.6467 8.71746 23.7008 8.7597 23.7621 8.78869C23.8235 8.81768 23.8904 8.83271 23.9583 8.83268V11.1243C23.9583 11.2459 24.0066 11.3625 24.0925 11.4484C24.1785 11.5344 24.295 11.5827 24.4166 11.5827H26.2499C26.3715 11.5827 26.4881 11.5344 26.574 11.4484C26.66 11.3625 26.7083 11.2459 26.7083 11.1243V8.83268C26.776 8.83264 26.843 8.81757 26.9042 8.78854C26.9655 8.75952 27.0195 8.71727 27.0625 8.66484C27.1055 8.61241 27.1363 8.5511 27.1527 8.48534C27.1691 8.41957 27.1707 8.35098 27.1574 8.28452L26.7733 6.36135C26.7318 6.15347 26.6195 5.96642 26.4555 5.83204C26.2916 5.69766 26.0861 5.62426 25.8741 5.62435H24.7924ZM24.8749 8.37435C24.875 8.26988 24.8393 8.16853 24.7739 8.0871C24.7085 8.00566 24.6172 7.94902 24.5151 7.92656L24.7924 6.54102H25.8741L26.1514 7.92656C26.0494 7.94902 25.9581 8.00566 25.8926 8.0871C25.8272 8.16853 25.7916 8.26988 25.7916 8.37435V10.666H24.8749V8.37435Z" fill="#2B407D"/>
<rect x="32.5" width="14" height="14" rx="7" fill="#D7E1FE"/>
<path d="M36.0399 3.13281H37.2611C37.3751 3.13281 37.4768 3.17759 37.5501 3.25086L38.3968 4.10161L38.7224 3.78004C38.8893 3.62128 39.0929 3.53987 39.2964 3.53987H41.7387C41.9423 3.53987 42.1458 3.62128 42.3127 3.78004L42.7198 4.18709C42.8785 4.35399 42.9599 4.55752 42.9599 4.76105V10.0528C42.9599 10.2687 42.8741 10.4758 42.7215 10.6285C42.5688 10.7812 42.3617 10.8669 42.1458 10.8669H38.0752C37.8593 10.8669 37.6522 10.7812 37.4995 10.6285C37.3469 10.4758 37.2611 10.2687 37.2611 10.0528V5.57517C37.2611 5.37164 37.3425 5.16811 37.5013 5.00121L37.8228 4.67557L37.0942 3.94693H36.0399V3.13281ZM39.2964 4.35399V5.16811H41.7387V4.35399H39.2964ZM39.4633 6.79634L38.6492 5.98222H38.0752V6.55618L38.8893 7.37029V8.66474L38.0752 9.47886V10.0528H38.6492L39.4633 9.23869H40.7577L41.5718 10.0528H42.1458V9.47886L41.3317 8.66474V7.37029L42.1458 6.55618V5.98222H41.5718L40.7577 6.79634H39.4633ZM39.7034 7.61046H40.5176V8.42458H39.7034V7.61046Z" fill="#2B407D"/>
</svg>
