<svg width="24" height="25" viewBox="0 0 24 25" fill="none" xmlns="http://www.w3.org/2000/svg">
<mask id="mask0_373_768" style="mask-type:alpha" maskUnits="userSpaceOnUse" x="0" y="0" width="24" height="25">
<rect y="0.259766" width="24" height="24" fill="black"/>
</mask>
<g mask="url(#mask0_373_768)">
<path fill-rule="evenodd" clip-rule="evenodd" d="M4 16.2598V18.2598C4 20.4698 5.791 22.2598 8 22.2598H18C20.21 22.2598 22 20.4698 22 18.2598C22 14.9308 22 9.58977 22 6.25977C22 4.05077 20.21 2.25977 18 2.25977C15.141 2.25977 10.86 2.25977 8 2.25977C5.791 2.25977 4 4.05077 4 6.25977V8.25977C4 8.81177 4.448 9.25977 5 9.25977C5.552 9.25977 6 8.81177 6 8.25977C6 8.25977 6 7.32277 6 6.25977C6 5.15577 6.896 4.25977 8 4.25977H18C19.105 4.25977 20 5.15577 20 6.25977V18.2598C20 19.3648 19.105 20.2598 18 20.2598C15.141 20.2598 10.86 20.2598 8 20.2598C6.896 20.2598 6 19.3648 6 18.2598C6 17.1978 6 16.2598 6 16.2598C6 15.7088 5.552 15.2598 5 15.2598C4.448 15.2598 4 15.7088 4 16.2598ZM11.586 11.2598L10.293 9.96776C9.903 9.57676 9.903 8.94376 10.293 8.55276C10.684 8.16277 11.317 8.16277 11.707 8.55276L14.707 11.5528C15.098 11.9438 15.098 12.5768 14.707 12.9678L11.707 15.9678C11.317 16.3578 10.684 16.3578 10.293 15.9678C9.903 15.5768 9.903 14.9438 10.293 14.5528L11.586 13.2598H3C2.448 13.2598 2 12.8118 2 12.2598C2 11.7088 2.448 11.2598 3 11.2598H11.586Z" fill="#2B407D"/>
</g>
</svg>
