<svg width="31" height="30" viewBox="0 0 31 30" fill="none" xmlns="http://www.w3.org/2000/svg">
<rect x="0.5" width="30" height="30" rx="4" fill="#000000"/>
<path d="M15.5 9.125C16.7929 9.125 18.0329 9.63861 18.9471 10.5529C19.8614 11.4671 20.375 12.7071 20.375 14C20.375 16.06 18.9275 18.305 16.07 20.759C15.9111 20.8955 15.7085 20.9705 15.4991 20.9703C15.2896 20.9701 15.0871 20.8948 14.9285 20.758L14.7395 20.594C12.0085 18.204 10.625 16.014 10.625 14C10.625 12.7071 11.1386 11.4671 12.0529 10.5529C12.9671 9.63861 14.2071 9.125 15.5 9.125ZM15.5 12.125C15.0027 12.125 14.5258 12.3225 14.1742 12.6742C13.8225 13.0258 13.625 13.5027 13.625 14C13.625 14.4973 13.8225 14.9742 14.1742 15.3258C14.5258 15.6775 15.0027 15.875 15.5 15.875C15.9973 15.875 16.4742 15.6775 16.8258 15.3258C17.1775 14.9742 17.375 14.4973 17.375 14C17.375 13.5027 17.1775 13.0258 16.8258 12.6742C16.4742 12.3225 15.9973 12.125 15.5 12.125Z" fill="white"/>
</svg>
