<svg width="19" height="18" viewBox="0 0 19 18" fill="none" xmlns="http://www.w3.org/2000/svg">
<path d="M6.5 6.75H12.5M6.5 9.75H11M14 3C14.5967 3 15.169 3.23705 15.591 3.65901C16.0129 4.08097 16.25 4.65326 16.25 5.25V11.25C16.25 11.8467 16.0129 12.419 15.591 12.841C15.169 13.2629 14.5967 13.5 14 13.5H10.25L6.5 15.75V13.5H5C4.40326 13.5 3.83097 13.2629 3.40901 12.841C2.98705 12.419 2.75 11.8467 2.75 11.25V5.25C2.75 4.65326 2.98705 4.08097 3.40901 3.65901C3.83097 3.23705 4.40326 3 5 3H14Z" stroke="#000000" stroke-width="1.5" stroke-linecap="round" stroke-linejoin="round"/>
</svg>
