<svg xmlns="http://www.w3.org/2000/svg" xmlns:xlink="http://www.w3.org/1999/xlink" width="400" viewBox="0 0 300 299.999988" height="400" preserveAspectRatio="xMidYMid meet"><path fill="#e5e5e5" d="M 150 26.210938 C 81.664062 26.210938 26.273438 81.601562 26.273438 149.9375 C 26.273438 218.273438 81.664062 273.664062 150 273.664062 C 218.335938 273.664062 273.726562 218.273438 273.726562 149.9375 C 273.664062 81.601562 218.273438 26.210938 150 26.210938 Z M 150 132.125 C 159.851562 132.125 167.808594 140.085938 167.808594 149.9375 C 167.808594 159.789062 159.851562 167.746094 150 167.746094 C 140.148438 167.746094 132.1875 159.789062 132.1875 149.9375 C 132.191406 140.148438 140.148438 132.125 150 132.125 Z M 143.050781 40.671875 L 128.464844 118.800781 C 119.367188 125.050781 113.179688 135.222656 112.292969 146.84375 L 51.914062 198.570312 C 44.652344 183.914062 40.546875 167.367188 40.546875 149.9375 C 40.484375 91.832031 85.832031 44.273438 143.050781 40.671875 Z M 150 259.453125 C 111.980469 259.453125 78.441406 240.0625 58.800781 210.570312 L 133.769531 184.167969 C 138.695312 186.503906 144.1875 187.832031 149.9375 187.832031 C 155.746094 187.832031 161.242188 186.503906 166.105469 184.167969 L 241.074219 210.570312 C 221.558594 240 188.019531 259.453125 150 259.453125 Z M 187.640625 146.90625 C 186.695312 135.285156 180.503906 125.117188 171.410156 118.863281 L 156.820312 40.738281 C 214.042969 44.273438 259.390625 91.832031 259.390625 150 C 259.390625 167.496094 255.285156 183.980469 248.019531 198.632812 Z M 187.640625 146.90625 " fill-opacity="1" fill-rule="nonzero"></path><path fill="#e5e5e5" d="M 150 0 C 67.199219 0 0 67.136719 0 150 C 0 232.800781 67.136719 300 150 300 C 232.800781 300 300 232.863281 300 150 C 299.9375 67.136719 232.800781 0 150 0 Z M 150 279.472656 C 78.441406 279.472656 20.527344 221.496094 20.527344 150 C 20.527344 78.441406 78.503906 20.527344 150 20.527344 C 221.496094 20.527344 279.472656 78.503906 279.472656 150 C 279.472656 221.496094 221.496094 279.472656 150 279.472656 Z M 150 279.472656 " fill-opacity="1" fill-rule="nonzero"></path></svg>