<svg width="14" height="15" viewBox="0 0 14 15" fill="none" xmlns="http://www.w3.org/2000/svg">
<g clip-path="url(#clip0_84_387)">
<path d="M9.59722 1.69287C9.94061 1.69276 10.2714 1.82245 10.5232 2.05595C10.7749 2.28944 10.9292 2.60947 10.9549 2.9519L10.9583 3.05398V6.45676H11.9792C12.2329 6.45677 12.4776 6.5513 12.6655 6.72192C12.8533 6.89253 12.9709 7.127 12.9952 7.37959L13 7.47759V12.5818C13 13.1025 12.8011 13.6036 12.4438 13.9825C12.0865 14.3614 11.598 14.5895 11.0781 14.62L10.9583 14.6234H2.11111C1.76772 14.6235 1.43698 14.4938 1.18518 14.2604C0.93339 14.0269 0.779157 13.7068 0.753403 13.3644L0.75 13.2623V3.05398C0.749891 2.71059 0.879582 2.37985 1.11307 2.12805C1.34657 1.87626 1.6666 1.72203 2.00903 1.69627L2.11111 1.69287H9.59722ZM11.6389 7.81787H10.9583V13.2623C11.1388 13.2623 11.3119 13.1906 11.4396 13.063C11.5672 12.9354 11.6389 12.7623 11.6389 12.5818V7.81787ZM9.59722 3.05398H2.11111V13.2623H9.59722V3.05398ZM6.19444 8.49843C6.3679 8.49862 6.53474 8.56504 6.66088 8.68411C6.78701 8.80319 6.86291 8.96594 6.87308 9.1391C6.88324 9.31226 6.8269 9.48277 6.71557 9.61578C6.60424 9.7488 6.44632 9.83429 6.27407 9.85477L6.19444 9.85954H4.15278C3.97932 9.85935 3.81248 9.79292 3.68635 9.67385C3.56021 9.55477 3.48431 9.39203 3.47415 9.21887C3.46398 9.0457 3.52032 8.8752 3.63165 8.74218C3.74298 8.60916 3.90091 8.52368 4.07315 8.50319L4.15278 8.49843H6.19444ZM7.55556 5.09565C7.73605 5.09565 7.90915 5.16735 8.03678 5.29498C8.16441 5.42261 8.23611 5.59571 8.23611 5.7762C8.23611 5.9567 8.16441 6.1298 8.03678 6.25743C7.90915 6.38506 7.73605 6.45676 7.55556 6.45676H4.15278C3.97228 6.45676 3.79918 6.38506 3.67155 6.25743C3.54392 6.1298 3.47222 5.9567 3.47222 5.7762C3.47222 5.59571 3.54392 5.42261 3.67155 5.29498C3.79918 5.16735 3.97228 5.09565 4.15278 5.09565H7.55556Z" fill="white"/>
</g>
<defs>
<clipPath id="clip0_84_387">
<rect width="14" height="14" fill="white" transform="translate(0 0.942871)"/>
</clipPath>
</defs>
</svg>
