<svg width="19" height="18" viewBox="0 0 19 18" fill="none" xmlns="http://www.w3.org/2000/svg">
<path d="M14.75 12.75V8.85C14.375 8.925 14 9 13.625 9H13.25V13.5H5.75V8.25C5.75 6.15 7.4 4.5 9.5 4.5C9.575 3.525 10.025 2.7 10.625 2.025C10.4 1.725 9.95 1.5 9.5 1.5C8.675 1.5 8 2.175 8 3V3.225C5.75 3.9 4.25 5.925 4.25 8.25V12.75L2.75 14.25V15H16.25V14.25L14.75 12.75ZM8 15.75C8 16.575 8.675 17.25 9.5 17.25C10.325 17.25 11 16.575 11 15.75H8Z" fill="#000000"/>
<circle cx="14" cy="3.5" r="2.5" fill="#C93131"/>
</svg>
