<svg width="14" height="15" viewBox="0 0 14 15" fill="none" xmlns="http://www.w3.org/2000/svg">
<g clip-path="url(#clip0_191_2780)">
<path d="M6.04275 0.744192C6.31423 0.526709 6.65171 0.408203 6.99956 0.408203C7.34742 0.408203 7.68489 0.526709 7.95638 0.744192L12.5501 4.41919C12.9132 4.70969 13.125 5.14982 13.125 5.61532V11.7569C13.125 12.1631 12.9637 12.5525 12.6765 12.8397C12.3893 13.1269 11.9999 13.2882 11.5938 13.2882H8.53125C8.3572 13.2882 8.19028 13.2191 8.06721 13.096C7.94414 12.9729 7.875 12.806 7.875 12.6319V8.03819H6.125V12.6319C6.125 12.806 6.05586 12.9729 5.93279 13.096C5.80972 13.2191 5.6428 13.2882 5.46875 13.2882H2.40625C2.00014 13.2882 1.61066 13.1269 1.32349 12.8397C1.03633 12.5525 0.875 12.1631 0.875 11.7569V5.61444C0.875 5.14982 1.08675 4.70969 1.44987 4.41919L6.04275 0.744192ZM7.1365 1.76882C7.09774 1.73786 7.04961 1.721 7 1.721C6.95039 1.721 6.90226 1.73786 6.8635 1.76882L2.26975 5.44382C2.24401 5.46437 2.22325 5.49046 2.20901 5.52016C2.19477 5.54986 2.18742 5.58238 2.1875 5.61532V11.7569C2.1875 11.8777 2.2855 11.9757 2.40625 11.9757H4.8125V7.38194C4.8125 7.20789 4.88164 7.04097 5.00471 6.9179C5.12778 6.79483 5.2947 6.72569 5.46875 6.72569H8.53125C8.7053 6.72569 8.87222 6.79483 8.99529 6.9179C9.11836 7.04097 9.1875 7.20789 9.1875 7.38194V11.9757H11.5938C11.6518 11.9757 11.7074 11.9526 11.7484 11.9116C11.7895 11.8706 11.8125 11.815 11.8125 11.7569V5.61444C11.8125 5.58166 11.805 5.5493 11.7908 5.51977C11.7766 5.49023 11.7559 5.46428 11.7303 5.44382L7.1365 1.76882Z" fill="#F7F8F9"/>
</g>
<defs>
<clipPath id="clip0_191_2780">
<rect width="14" height="14" fill="white" transform="translate(0 0.164062)"/>
</clipPath>
</defs>
</svg>
