<svg width="24" height="25" viewBox="0 0 24 25" fill="none" xmlns="http://www.w3.org/2000/svg">
<path fill-rule="evenodd" clip-rule="evenodd" d="M20.723 16.3937C21.5514 14.9588 21.0598 13.124 19.6249 12.2956L19.5628 12.2597L19.6249 12.2239C21.0597 11.3954 21.5514 9.56067 20.7229 8.12579L19.7229 6.39374C18.8945 4.95886 17.0597 4.46724 15.6249 5.29566L15.5627 5.33156V5.25977C15.5627 3.60291 14.2195 2.25977 12.5627 2.25977L10.5627 2.25977C8.90583 2.25977 7.56268 3.60291 7.56268 5.25976L7.56268 5.33145L7.50056 5.29558C6.06568 4.46716 4.23091 4.95878 3.40248 6.39366L2.40248 8.12571C1.57406 9.56059 2.06568 11.3954 3.50056 12.2238L3.56277 12.2597L3.5005 12.2957C2.06562 13.1241 1.574 14.9589 2.40242 16.3937L3.40242 18.1258C4.23085 19.5607 6.06562 20.0523 7.5005 19.2239L7.56268 19.188V19.2598C7.56268 20.9166 8.90582 22.2598 10.5627 22.2598H12.5627C14.2195 22.2598 15.5627 20.9166 15.5627 19.2598V19.1879L15.6249 19.2238C17.0598 20.0522 18.8946 19.5606 19.723 18.1257L20.723 16.3937ZM16.5627 7.06361C15.2294 7.83342 13.5627 6.87117 13.5627 5.33156V5.25977C13.5627 4.70748 13.115 4.25977 12.5627 4.25977L10.5627 4.25977C10.0104 4.25977 9.56271 4.70745 9.56268 5.2597L9.56268 5.33145C9.56267 6.871 7.8961 7.83325 6.56277 7.06355L6.50056 7.02764C6.02227 6.75149 5.41068 6.91537 5.13453 7.39366L4.13453 9.12571C3.85839 9.604 4.02227 10.2156 4.50056 10.4917L4.56269 10.5276C5.89611 11.2974 5.89615 13.2219 4.56277 13.9918L4.5005 14.0277C4.02221 14.3039 3.85833 14.9154 4.13447 15.3937L5.13448 17.1258C5.41062 17.6041 6.02221 17.768 6.5005 17.4918L6.56269 17.4559C7.89602 16.6861 9.56267 17.6484 9.56268 19.188V19.2598C9.56268 19.812 10.0104 20.2598 10.5627 20.2598H12.5627C13.115 20.2598 13.5627 19.8121 13.5627 19.2598V19.1879C13.5627 17.6482 15.2294 16.686 16.5628 17.4559L16.6249 17.4917C17.1032 17.7679 17.7148 17.604 17.9909 17.1257L18.9909 15.3937C19.2671 14.9154 19.1032 14.3038 18.6249 14.0276L18.5627 13.9917C17.2295 13.2219 17.2295 11.2974 18.5628 10.5277L18.6249 10.4918C19.1032 10.2157 19.267 9.60408 18.9909 9.12579L17.9909 7.39374C17.7147 6.91545 17.1032 6.75157 16.6249 7.02772L16.5627 7.06361Z" fill="#2B407D"/>
<path fill-rule="evenodd" clip-rule="evenodd" d="M11.5625 14.2597C12.6671 14.2597 13.5625 13.3643 13.5625 12.2597C13.5625 11.1551 12.6671 10.2597 11.5625 10.2597C10.4579 10.2597 9.5625 11.1551 9.5625 12.2597C9.5625 13.3643 10.4579 14.2597 11.5625 14.2597ZM11.5625 16.2597C13.7716 16.2597 15.5625 14.4688 15.5625 12.2597C15.5625 10.0506 13.7716 8.2597 11.5625 8.2597C9.35336 8.2597 7.5625 10.0506 7.5625 12.2597C7.5625 14.4688 9.35336 16.2597 11.5625 16.2597Z" fill="#2B407D"/>
</svg>
