<svg width="24" height="25" viewBox="0 0 24 25" fill="none" xmlns="http://www.w3.org/2000/svg">
<path fill-rule="evenodd" clip-rule="evenodd" d="M12 20.7598C16.4183 20.7598 20 17.178 20 12.7598C20 8.34149 16.4183 4.75977 12 4.75977C7.58172 4.75977 4 8.34149 4 12.7598C4 17.178 7.58172 20.7598 12 20.7598ZM12 22.7598C17.5228 22.7598 22 18.2826 22 12.7598C22 7.23692 17.5228 2.75977 12 2.75977C6.47715 2.75977 2 7.23692 2 12.7598C2 18.2826 6.47715 22.7598 12 22.7598Z" fill="#2B407D"/>
<path d="M13 17.7598C13 18.312 12.5523 18.7598 12 18.7598C11.4477 18.7598 11 18.312 11 17.7598C11 17.2075 11.4477 16.7598 12 16.7598C12.5523 16.7598 13 17.2075 13 17.7598Z" fill="#2B407D"/>
<path fill-rule="evenodd" clip-rule="evenodd" d="M9.99998 10.7668C9.99999 10.7621 10 10.7605 9.99998 10.7668V10.7668ZM13.0049 14.4275C13.4381 14.1064 13.9683 13.8936 14.4472 13.6542C16.0769 12.8394 16.2805 10.9391 15.8237 9.56854C15.3418 8.12274 14.016 6.75977 12 6.75977C11.075 6.75977 10.3148 6.99389 9.71093 7.39647C9.11332 7.79487 8.72739 8.31892 8.48057 8.81255C8.17713 9.41944 8.02832 10.085 8 10.7598C8 11.312 8.44772 11.7598 9 11.7598C9.54995 11.7598 9.99622 11.3158 9.99998 10.7668C10.0099 10.4045 10.1081 10.0296 10.2694 9.70698C10.6078 9.0302 11.2659 8.75977 12 8.75977C12.984 8.75977 13.6582 9.39679 13.9263 10.201C14.2195 11.0805 13.9231 11.6802 13.5528 11.8653C13.1525 12.0655 12.7495 12.2619 12.3581 12.4794C12.0635 12.643 11.7721 12.8234 11.5429 13.0527C10.9542 13.6414 11 14.3409 11 14.7598C11 15.312 11.4477 15.7598 12 15.7598C12.5523 15.7598 13 15.312 13 14.7598C13 14.5794 13.0017 14.4833 13.0049 14.4275Z" fill="#2B407D"/>
</svg>
